<svg width="31" height="31" viewBox="0 0 31 31" fill="none" xmlns="http://www.w3.org/2000/svg">
<g id="Group 12734">
<path id="Path 42" d="M29 15.5C29 18.17 28.2082 20.7801 26.7248 23.0002C25.2414 25.2203 23.133 26.9506 20.6662 27.9724C18.1994 28.9942 15.485 29.2615 12.8663 28.7406C10.2475 28.2197 7.84207 26.9339 5.95406 25.0459C4.06606 23.1579 2.78031 20.7525 2.2594 18.1337C1.7385 15.515 2.00585 12.8006 3.02763 10.3338C4.04942 7.86697 5.77974 5.75856 7.99981 4.27516C10.2199 2.79176 12.83 2 15.5 2C17.2728 2 19.0283 2.34919 20.6662 3.02763C22.3041 3.70606 23.7924 4.70047 25.0459 5.95406C26.2995 7.20765 27.2939 8.69588 27.9724 10.3338C28.6508 11.9717 29 13.7272 29 15.5Z" stroke="white" stroke-width="3" stroke-linecap="round" stroke-linejoin="round"/>
<path id="Path 43" d="M15.4999 20.8996L20.8999 15.4996L15.4999 10.0996" stroke="white" stroke-width="3" stroke-linecap="round" stroke-linejoin="round"/>
<path id="Path 44" d="M10.1002 15.5H20.9002" stroke="white" stroke-width="3" stroke-linecap="round" stroke-linejoin="round"/>
</g>
</svg>
