<svg height="56" viewBox="0 0 56 56" width="56" xmlns="http://www.w3.org/2000/svg"><path d="m20.6063 37.8c.8542 0 1.477-.5873 1.477-1.4948v-2.5625h.0712c1.1388 2.5091 3.47 4.0751 6.4239 4.0751 4.8579 0 8.043-3.8615 8.043-9.8227 0-5.9613-3.203-9.8228-8.0074-9.8228-2.9006 0-5.2495 1.5838-6.3527 4.0572h-.089v-9.0931c0-.9609-.605-1.5837-1.4948-1.5837s-1.4948.6228-1.4948 1.5837v23.1688c0 .9253.5695 1.4948 1.4236 1.4948zm26.8345.0178c3.5056 0 6.495-1.9219 7.5093-4.6445.1067-.3025.1603-.5872.1603-.8363 0-.7652-.5339-1.299-1.2813-1.299-.6761 0-1.0321.2669-1.4235 1.0498-.9432 2.0287-2.5445 3.1319-4.9469 3.1319-3.4702 0-5.7479-2.7582-5.7479-7.2068 0-4.4132 2.2777-7.2425 5.7479-7.2425 2.2956 0 3.9505 1.0854 4.9111 3.1674.374.7474.7296 1.0143 1.3882 1.0143.7653 0 1.2988-.4982 1.2988-1.2812 0-.2135-.0532-.4804-.1242-.7118-.89-2.7226-3.9327-4.7868-7.5453-4.7868-5.3026 0-8.7549 3.8971-8.7549 9.8583 0 5.9969 3.4877 9.7872 8.8084 9.7872zm-41.0881-.0178c2.7048 0 5.2673-1.477 6.3349-3.7547h.0534v2.3133c.0356.8719.6229 1.4592 1.4592 1.4592.8542 0 1.4414-.5873 1.4414-1.5304v-11.7801c0-3.8437-2.8116-6.3171-7.2959-6.3171-3.3276 0-6.0858 1.4591-7.1179 3.719-.1957.4449-.3203.872-.3203 1.2457 0 .7829.5695 1.2812 1.3524 1.2812.5517 0 .961-.1957 1.2457-.694.9609-2.0464 2.4734-2.9895 4.7689-2.9895 2.7405 0 4.3598 1.5303 4.3598 4.0038v1.4948l-5.6765.3203c-4.4665.3025-6.9578 2.3133-6.9578 5.5875 0 3.3988 2.598 5.641 6.3527 5.641zm21.5495-2.5803c-3.3454 0-5.7299-2.8649-5.7299-7.2068 0-4.3598 2.3845-7.2247 5.7299-7.2247 3.4521 0 5.623 2.7938 5.623 7.2069 0 4.4486-2.1709 7.2246-5.623 7.2246zm-20.8377.1068c-2.3845 0-3.986-1.299-3.986-3.2209 0-1.8684 1.4947-3.0962 4.2529-3.292l5.3029-.3381v1.8507c0 2.8115-2.4735 5.0003-5.5698 5.0003zm38.33 13.6664c1.1742 0 2.1353-.961 2.1353-2.1354 0-1.1745-.9611-2.1354-2.1353-2.1354-1.1746 0-2.1356.9609-2.1356 2.1354 0 1.1744.961 2.1354 2.1356 2.1354zm8.4703 0c1.1745 0 2.1352-.961 2.1352-2.1354 0-1.1745-.9607-2.1354-2.1352-2.1354-1.1746 0-2.1353.9609-2.1353 2.1354 0 1.1744.9607 2.1354 2.1353 2.1354zm-16.9405 0c1.1921 0 2.1352-.961 2.1352-2.1354 0-1.1745-.9431-2.1354-2.1352-2.1354-1.1746 0-2.1356.9609-2.1356 2.1354 0 1.1744.961 2.1354 2.1356 2.1354zm-8.4705 0c1.1923 0 2.1354-.961 2.1354-2.1354 0-1.1745-.9431-2.1354-2.1354-2.1354-1.1744 0-2.1353.9609-2.1353 2.1354 0 1.1744.9609 2.1354 2.1353 2.1354zm-8.4703 0c1.1922 0 2.1354-.961 2.1354-2.1354 0-1.1745-.9432-2.1354-2.1354-2.1354-1.1744 0-2.1354.9609-2.1354 2.1354 0 1.1744.961 2.1354 2.1354 2.1354zm-8.4703 0c1.1923 0 2.1532-.961 2.1532-2.1354 0-1.1745-.9609-2.1354-2.1532-2.1354-1.1745 0-2.1354.9609-2.1354 2.1354 0 1.1744.9609 2.1354 2.1354 2.1354zm-8.4881 0c1.1922 0 2.1354-.961 2.1354-2.1354 0-1.1745-.9432-2.1354-2.1354-2.1354-1.1745 0-2.1354.9609-2.1354 2.1354 0 1.1744.9609 2.1354 2.1354 2.1354z"/></svg>