<svg width="19" height="18" viewBox="0 0 19 18" fill="none" xmlns="http://www.w3.org/2000/svg">
<g id="google-sso.svg" clip-path="url(#clip0_355_1363)">
<g id="Group">
<path id="Vector" d="M9.49996 3.5625C10.8275 3.5625 12.0162 4.02 12.9537 4.9125L15.5225 2.34375C13.9625 0.8925 11.9262 0 9.49996 0C5.98246 0 2.94121 2.0175 1.45996 4.9575L4.45246 7.27875C5.16121 5.145 7.15246 3.5625 9.49996 3.5625Z" fill="#EA4335"/>
<path id="Vector_2" d="M18.1175 9.20625C18.1175 8.6175 18.0612 8.0475 17.975 7.5H9.5V10.8825H14.3525C14.135 11.9925 13.505 12.9375 12.56 13.575L15.4588 15.825C17.15 14.2575 18.1175 11.94 18.1175 9.20625Z" fill="#4285F4"/>
<path id="Vector_3" d="M4.44875 10.7213C4.26875 10.1775 4.16375 9.60002 4.16375 9.00002C4.16375 8.40002 4.265 7.82252 4.44875 7.27877L1.45625 4.95752C0.845 6.17252 0.5 7.54502 0.5 9.00002C0.5 10.455 0.845 11.8275 1.46 13.0425L4.44875 10.7213Z" fill="#FBBC05"/>
<path id="Vector_4" d="M9.50005 17.9998C11.93 17.9998 13.9738 17.201 15.4588 15.821L12.56 13.571C11.7538 14.1148 10.715 14.4335 9.50005 14.4335C7.15255 14.4335 5.1613 12.851 4.4488 10.7173L1.4563 13.0385C2.9413 15.9823 5.98255 17.9998 9.50005 17.9998Z" fill="#34A853"/>
</g>
</g>
<defs>
<clipPath id="clip0_355_1363">
<rect width="18" height="18" fill="white" transform="translate(0.5)"/>
</clipPath>
</defs>
</svg>
