<svg width="141" height="38" viewBox="0 0 141 38" fill="none" xmlns="http://www.w3.org/2000/svg">
<path id="Path 212" d="M0.527344 30.0002V0.90918H20.1273V5.98018H6.67834V12.9122H19.1213V17.9832H6.67834V24.9292H20.1873V30.0002H0.527344ZM29.2163 10.3642L32.8214 17.2292L36.5154 10.3642H42.0993L36.4103 20.1822L42.2553 30.0002H36.6993L32.8263 23.2122L29.0113 30.0002H23.3863L29.2163 20.1822L23.5913 10.3642H29.2163ZM50.8303 30.3712C49.6806 30.3916 48.5395 30.1694 47.4813 29.7192C46.5342 29.3038 45.7264 28.6248 45.1543 27.7632C44.5628 26.7861 44.2695 25.6576 44.3103 24.5162C44.2788 23.5642 44.485 22.6194 44.9103 21.7672C45.2961 21.0419 45.8593 20.4261 46.5473 19.9772C47.2707 19.5108 48.065 19.1653 48.8993 18.9542C49.8141 18.7189 50.746 18.5564 51.6863 18.4682C52.8283 18.3488 53.7487 18.2382 54.4473 18.1362C54.9826 18.0803 55.5007 17.9149 55.9693 17.6502C56.1235 17.5471 56.2482 17.4057 56.3312 17.2398C56.4141 17.074 56.4524 16.8894 56.4423 16.7042V16.6272C56.4628 16.2765 56.4044 15.9257 56.2715 15.6006C56.1386 15.2754 55.9345 14.9842 55.6743 14.7482C55.0652 14.2694 54.3005 14.0325 53.5273 14.0832C52.6971 14.0396 51.8754 14.2686 51.1873 14.7352C50.6328 15.1266 50.2274 15.6945 50.0373 16.3462L44.9993 15.9382C45.2299 14.7951 45.749 13.73 46.5073 12.8442C47.2924 11.9417 48.2887 11.2477 49.4073 10.8242C50.7298 10.3239 52.1357 10.0809 53.5493 10.1082C54.6053 10.104 55.6576 10.233 56.6814 10.4922C57.6362 10.7249 58.5413 11.1277 59.3533 11.6812C60.1305 12.2105 60.7669 12.9214 61.2073 13.7522C61.6805 14.6798 61.9137 15.7112 61.8853 16.7522V30.0002H56.7203V27.2772H56.5663C56.2498 27.8928 55.8207 28.4436 55.3013 28.9012C54.7418 29.3794 54.0972 29.7482 53.4013 29.9882C52.5715 30.2573 51.7026 30.3868 50.8303 30.3712ZM52.3904 26.6132C53.1254 26.6282 53.8533 26.466 54.5123 26.1402C55.0996 25.8409 55.5979 25.3926 55.9573 24.8402C56.309 24.2865 56.4911 23.642 56.4813 22.9862V20.9002C56.2624 21.0327 56.0271 21.1359 55.7813 21.2072C55.4913 21.2925 55.163 21.3735 54.7963 21.4502C54.4297 21.5268 54.063 21.5908 53.6964 21.6422L52.6964 21.7832C52.1211 21.8594 51.5581 22.0097 51.0213 22.2302C50.5841 22.4046 50.2005 22.6913 49.9093 23.0612C49.635 23.4295 49.494 23.8802 49.5093 24.3392C49.4916 24.6671 49.5559 24.9943 49.6965 25.2912C49.837 25.588 50.0494 25.8451 50.3143 26.0392C50.9293 26.4427 51.6554 26.6441 52.3904 26.6132ZM66.1143 30.0002V10.3642H71.3043V13.8282H71.5343C71.9076 12.7251 72.6247 11.7707 73.5803 11.1052C74.59 10.4226 75.788 10.0729 77.0063 10.1052C78.2308 10.0687 79.4351 10.4224 80.4453 11.1152C81.3795 11.7635 82.0507 12.7248 82.3373 13.8252H82.5373C82.9336 12.704 83.7005 11.7515 84.7113 11.1252C85.8327 10.425 87.1348 10.0693 88.4563 10.1022C89.2808 10.0695 90.103 10.2083 90.871 10.5097C91.639 10.8111 92.3362 11.2686 92.9184 11.8532C93.5221 12.5181 93.9861 13.2976 94.2826 14.1454C94.5791 14.9932 94.7021 15.8919 94.6443 16.7882V30.0002H89.2113V17.8682C89.2457 17.4209 89.186 16.9714 89.0362 16.5486C88.8863 16.1258 88.6497 15.739 88.3413 15.4132C87.7534 14.8643 86.9723 14.5703 86.1684 14.5952C85.7366 14.5716 85.3051 14.6442 84.9049 14.8078C84.5047 14.9714 84.1459 15.2219 83.8543 15.5412C83.2769 16.2297 82.9802 17.1106 83.0233 18.0082V30.0002H77.7433V17.7532C77.7644 17.3338 77.7017 16.9145 77.559 16.5196C77.4164 16.1248 77.1965 15.7622 76.9123 15.4532C76.6327 15.1667 76.2958 14.9424 75.9236 14.7949C75.5514 14.6474 75.1523 14.58 74.7523 14.5972C74.1737 14.5894 73.6052 14.7492 73.1153 15.0572C72.6277 15.3673 72.2345 15.8052 71.9783 16.3232C71.6852 16.9099 71.5403 17.5595 71.5564 18.2152V30.0002H66.1143ZM98.9503 30.0002V10.3642H104.399V30.0002H98.9503ZM101.685 7.83218C100.913 7.84631 100.165 7.55737 99.6023 7.02718C99.3298 6.77992 99.1125 6.47785 98.9648 6.14076C98.8171 5.80368 98.7423 5.43919 98.7453 5.07118C98.7426 4.70701 98.8176 4.34645 98.9654 4.01362C99.1132 3.68078 99.3303 3.38334 99.6023 3.14118C100.161 2.60384 100.91 2.30972 101.685 2.32318C102.067 2.31575 102.447 2.38422 102.803 2.52464C103.158 2.66505 103.482 2.87461 103.756 3.14118C104.032 3.38138 104.252 3.67815 104.402 4.01122C104.552 4.34429 104.629 4.70584 104.626 5.07118C104.629 5.44035 104.553 5.80583 104.403 6.14315C104.253 6.48048 104.032 6.78187 103.756 7.02718C103.199 7.5585 102.455 7.8479 101.685 7.83218ZM119.318 10.3632V14.4542H107.199V10.3642L119.318 10.3632ZM109.973 30.0002V8.94518C109.925 7.71074 110.21 6.48608 110.799 5.40018C111.339 4.48362 112.14 3.74919 113.099 3.29118C114.136 2.80945 115.268 2.57006 116.41 2.59118C117.177 2.58537 117.943 2.64964 118.698 2.78318C119.224 2.87183 119.744 2.98698 120.258 3.12818L119.286 7.21918C119.026 7.13938 118.762 7.07527 118.494 7.02718C118.183 6.96686 117.866 6.93672 117.548 6.93718C117.245 6.90368 116.938 6.93669 116.649 7.03392C116.359 7.13115 116.095 7.29027 115.873 7.50018C115.534 7.94156 115.365 8.49125 115.4 9.04718V30.0002H109.973ZM126.007 37.3642C125.356 37.3676 124.706 37.3121 124.064 37.1982C123.557 37.1192 123.06 36.9851 122.581 36.7982L123.808 32.7332C124.367 32.9147 124.948 33.0223 125.534 33.0532C126.009 33.0825 126.48 32.9569 126.876 32.6952C127.314 32.3678 127.64 31.914 127.81 31.3952L128.129 30.5642L121.085 10.3642H126.813L130.878 24.7842H131.078L135.178 10.3642H140.944L133.312 32.1232C132.975 33.1232 132.468 34.0573 131.812 34.8842C131.187 35.6792 130.374 36.3072 129.447 36.7122C128.36 37.172 127.187 37.3943 126.007 37.3642Z" fill="#5F51A9"/>
</svg>
