<svg xmlns="http://www.w3.org/2000/svg" xmlns:xlink="http://www.w3.org/1999/xlink" viewBox="0,0,256,256" width="48px" height="48px"><defs><linearGradient x1="0.968" y1="4.674" x2="69.116" y2="61.857" gradientUnits="userSpaceOnUse" id="color-1"><stop offset="0" stop-color="#adadad" stop-opacity="0"></stop><stop offset="1" stop-color="#262626" stop-opacity="0.8"></stop></linearGradient><linearGradient x1="0.464" y1="52.049" x2="55.078" y2="-13.037" gradientUnits="userSpaceOnUse" id="color-2"><stop offset="0" stop-color="#adadad" stop-opacity="0"></stop><stop offset="1" stop-color="#262626" stop-opacity="0.8"></stop></linearGradient><linearGradient x1="17.741" y1="23.845" x2="29.637" y2="9.666" gradientUnits="userSpaceOnUse" id="color-3"><stop offset="0" stop-color="#adadad" stop-opacity="0"></stop><stop offset="1" stop-color="#262626" stop-opacity="0.8"></stop></linearGradient><linearGradient x1="28.566" y1="38.245" x2="28.566" y2="22.031" gradientUnits="userSpaceOnUse" id="color-4"><stop offset="0" stop-color="#adadad" stop-opacity="0"></stop><stop offset="1" stop-color="#262626" stop-opacity="0.8"></stop></linearGradient><linearGradient x1="22.651" y1="31.65" x2="25.394" y2="16.094" gradientUnits="userSpaceOnUse" id="color-5"><stop offset="0" stop-color="#adadad" stop-opacity="0"></stop><stop offset="1" stop-color="#262626" stop-opacity="0.8"></stop></linearGradient></defs><g fill="none" fill-rule="nonzero" stroke="none" stroke-width="1" stroke-linecap="butt" stroke-linejoin="miter" stroke-miterlimit="10" stroke-dasharray="" stroke-dashoffset="0" font-family="none" font-weight="none" font-size="none" text-anchor="none" style="mix-blend-mode: normal"><g transform="scale(5.33333,5.33333)"><circle cx="24" cy="24" r="20" fill="url(#color-1)"></circle><path d="M24,8c8.822,0 16,7.178 16,16c0,8.822 -7.178,16 -16,16c-8.822,0 -16,-7.178 -16,-16c0,-8.822 7.178,-16 16,-16zM24,4c-11.045,0 -20,8.955 -20,20c0,11.045 8.955,20 20,20c11.045,0 20,-8.955 20,-20c0,-11.045 -8.955,-20 -20,-20z" fill="url(#color-2)"></path><path d="M26,21.77c-0.53,-0.48 -1.23,-0.77 -2,-0.77c-0.77,0 -1.47,0.29 -2,0.77v-10.77h1c1.657,0 3,1.343 3,3z" fill="url(#color-3)"></path><path d="M26.99,24.16l5.983,5.994l-0.699,0.699c-1.171,1.171 -3.069,1.172 -4.241,0.002l-3.873,-3.865c1.53,-0.07 2.76,-1.3 2.83,-2.83z" fill="url(#color-4)"></path><circle cx="24" cy="24" r="3" fill="url(#color-5)"></circle></g></g></svg>