<svg width="98" height="38" viewBox="0 0 98 38" fill="none" xmlns="http://www.w3.org/2000/svg">
<g id="Group 12739">
<path id="Vector 1" d="M29.3512 7.35156C31.3017 7.35156 33.2521 7.35156 35.2026 7.35156C36.7554 7.35156 37.5599 7.62234 38.9393 8.4011C40.0869 9.04899 39.9863 9.06411 40.7871 10.2669C41.9817 12.061 43.4833 13.3268 44.7292 15.019C45.6814 16.3124 46.7271 16.9646 47.7165 18.1093C48.3555 18.8486 49.4217 19.8976 49.8517 20.8643C50.5696 22.4782 51.5004 23.5349 52.4079 24.873C52.9163 25.6227 53.4976 26.1871 54.0093 26.9137C54.2598 27.2695 54.2062 27.8973 54.5226 28.2256C54.7933 28.5065 55.1396 28.558 55.4054 28.8816C56.3344 30.0122 57.1329 30.941 58.0335 32.2197C58.9682 33.547 61.8906 32.8028 63.0739 32.8028C64.8293 32.8028 66.5847 32.8028 68.3402 32.8028" stroke="#2F2F2F" stroke-linecap="round"/>
<path id="Vector 2" d="M68.5243 7.6135C67.3271 7.16017 65.9398 7.24741 64.726 7.55519C63.161 7.95201 61.4465 7.89967 59.9524 8.64845C58.9936 9.12897 58.2654 10.301 57.4784 11.1703C56.6157 12.1231 55.6421 12.955 54.6656 13.6483C53.6837 14.3455 52.6319 15.0143 51.6167 15.6016C50.8556 16.0419 50.3607 16.0305 49.8613 17.001C49.5008 17.7014 48.8703 17.9709 48.4754 18.5316C47.9617 19.261 47.4379 20.0769 46.8637 20.7327C46.1523 21.5452 45.1518 22.0175 44.6463 23.0941C44.278 23.8786 43.1472 24.1898 42.6651 24.96C42.1253 25.8222 41.654 26.7309 41.0739 27.5547C40.48 28.3979 39.6029 28.7166 38.8668 29.2602C37.5373 30.2418 35.7949 31.2788 34.2985 31.6945C32.8335 32.1015 31.0256 31.7528 29.5353 31.7528" stroke="#2F2F2F" stroke-linecap="round"/>
<rect id="Rectangle 118" x="0.5" y="24" width="29.5782" height="14" fill="#5C687E"/>
<rect id="Rectangle 117" x="0.5" width="29.5782" height="14" fill="#5C687E"/>
<rect id="Rectangle 119" x="68.1078" width="29.5782" height="14" fill="#5C687E"/>
<rect id="Rectangle 120" x="68.1078" y="24" width="29.5782" height="14" fill="#5C687E"/>
</g>
</svg>
