<svg width="62" height="48" viewBox="0 0 62 48" fill="none" xmlns="http://www.w3.org/2000/svg">
<g id="Group" filter="url(#filter0_d_218_300)">
<path id="Icon awesome-folder-plus" d="M51.2771 9.50445H32.5401L26.2961 3.75845H10.6801C9.48815 3.71102 8.32598 4.13785 7.44807 4.94547C6.57016 5.7531 6.04806 6.8757 5.99609 8.06745V33.9245C6.04806 35.1162 6.57016 36.2388 7.44807 37.0464C8.32598 37.8541 9.48815 38.2809 10.6801 38.2335H51.2801C52.472 38.2809 53.6342 37.8541 54.5121 37.0464C55.39 36.2388 55.9121 35.1162 55.9641 33.9245V13.8135C55.9121 12.6212 55.3896 11.4981 54.5111 10.6904C53.6325 9.88267 52.4695 9.45621 51.2771 9.50445ZM41.9081 24.5875C41.8915 24.9849 41.7177 25.3594 41.4249 25.6287C41.1322 25.898 40.7445 26.04 40.3471 26.0235H33.3211V32.4885C33.3045 32.8859 33.1307 33.2604 32.8379 33.5297C32.5452 33.799 32.1575 33.941 31.7601 33.9245H30.1961C29.7989 33.9407 29.4114 33.7986 29.1189 33.5293C28.8264 33.2601 28.6527 32.8857 28.6361 32.4885V26.0235H21.6101C21.2127 26.04 20.825 25.898 20.5322 25.6287C20.2395 25.3594 20.0657 24.9849 20.0491 24.5875V23.1515C20.0657 22.754 20.2395 22.3795 20.5322 22.1102C20.825 21.8409 21.2127 21.6989 21.6101 21.7155H28.6361V15.2505C28.6525 14.853 28.826 14.4784 29.1185 14.2089C29.4111 13.9395 29.7987 13.7972 30.1961 13.8135H31.7571C32.1545 13.7969 32.5422 13.9389 32.8349 14.2082C33.1277 14.4775 33.3015 14.852 33.3181 15.2495V21.7135H40.3441C40.7415 21.6969 41.1292 21.8389 41.4219 22.1082C41.7147 22.3775 41.8885 22.752 41.9051 23.1495L41.9081 24.5875Z" fill="black"/>
</g>
<defs>
<filter id="filter0_d_218_300" x="-0.00390625" y="0.754883" width="61.9688" height="46.4824" filterUnits="userSpaceOnUse" color-interpolation-filters="sRGB">
<feFlood flood-opacity="0" result="BackgroundImageFix"/>
<feColorMatrix in="SourceAlpha" type="matrix" values="0 0 0 0 0 0 0 0 0 0 0 0 0 0 0 0 0 0 127 0" result="hardAlpha"/>
<feOffset dy="3"/>
<feGaussianBlur stdDeviation="3"/>
<feColorMatrix type="matrix" values="0 0 0 0 0 0 0 0 0 0 0 0 0 0 0 0 0 0 0.161 0"/>
<feBlend mode="normal" in2="BackgroundImageFix" result="effect1_dropShadow_218_300"/>
<feBlend mode="normal" in="SourceGraphic" in2="effect1_dropShadow_218_300" result="shape"/>
</filter>
</defs>
</svg>
